<svg xmlns="http://www.w3.org/2000/svg" xmlns:xlink="http://www.w3.org/1999/xlink" width="800" zoomAndPan="magnify" viewBox="0 0 600 599.999999" height="800" preserveAspectRatio="xMidYMid meet" version="1.0"><defs><g/></defs><g fill="#ffffff" fill-opacity="1"><g transform="translate(78.61313, 289.921301)"><g><path d="M 8.78125 0 L 8.78125 -76.015625 L 32.40625 -76.015625 C 38.800781 -76.015625 44.203125 -75.382812 48.609375 -74.125 C 53.023438 -72.863281 56.378906 -70.679688 58.671875 -67.578125 C 60.960938 -64.472656 62.109375 -60.175781 62.109375 -54.6875 C 62.109375 -51.269531 61.476562 -48.070312 60.21875 -45.09375 C 58.957031 -42.125 57 -39.738281 54.34375 -37.9375 C 51.6875 -36.144531 48.242188 -35.25 44.015625 -35.25 C 48.160156 -35.25 51.242188 -34.367188 53.265625 -32.609375 C 55.296875 -30.859375 56.644531 -28.65625 57.3125 -26 C 57.988281 -23.34375 58.347656 -20.570312 58.390625 -17.6875 C 58.441406 -14.8125 58.535156 -12.179688 58.671875 -9.796875 C 58.804688 -7.410156 59.34375 -5.648438 60.28125 -4.515625 C 61.226562 -3.390625 62.960938 -3.28125 65.484375 -4.1875 L 65.484375 0.265625 C 65.035156 0.628906 64.160156 0.945312 62.859375 1.21875 C 61.554688 1.488281 60.140625 1.394531 58.609375 0.9375 C 57.078125 0.488281 55.769531 -0.539062 54.6875 -2.15625 C 53.601562 -3.78125 53.0625 -6.257812 53.0625 -9.59375 C 53.0625 -14.8125 52.859375 -18.992188 52.453125 -22.140625 C 52.054688 -25.296875 51.203125 -27.707031 49.890625 -29.375 C 48.585938 -31.039062 46.5625 -32.164062 43.8125 -32.75 C 41.070312 -33.332031 37.359375 -33.625 32.671875 -33.625 C 27.992188 -33.625 22.097656 -33.578125 14.984375 -33.484375 L 14.984375 0 Z M 14.984375 -38.484375 L 34.84375 -38.484375 C 42.132812 -38.484375 47.578125 -39.582031 51.171875 -41.78125 C 54.773438 -43.988281 56.578125 -48.203125 56.578125 -54.421875 C 56.578125 -59.191406 55.609375 -62.722656 53.671875 -65.015625 C 51.734375 -67.304688 48.894531 -68.8125 45.15625 -69.53125 C 41.425781 -70.257812 36.90625 -70.625 31.59375 -70.625 L 14.984375 -70.625 Z M 14.984375 -38.484375 "/></g></g></g><g fill="#ffffff" fill-opacity="1"><g transform="translate(148.826672, 289.921301)"><g><path d="M 29.703125 1.34375 C 23.859375 1.34375 19.019531 -0.046875 15.1875 -2.828125 C 11.363281 -5.617188 8.503906 -9.195312 6.609375 -13.5625 C 4.722656 -17.9375 3.828125 -22.460938 3.921875 -27.140625 C 3.921875 -32.003906 4.910156 -36.550781 6.890625 -40.78125 C 8.867188 -45.007812 11.769531 -48.40625 15.59375 -50.96875 C 19.414062 -53.539062 24.078125 -54.828125 29.578125 -54.828125 C 36.410156 -54.828125 42.054688 -52.597656 46.515625 -48.140625 C 50.972656 -43.679688 53.472656 -37.71875 54.015625 -30.25 C 54.097656 -29.800781 54.140625 -29.257812 54.140625 -28.625 C 54.140625 -28 54.140625 -27.414062 54.140625 -26.875 L 9.859375 -26.875 C 9.859375 -19.9375 11.566406 -14.394531 14.984375 -10.25 C 18.410156 -6.113281 23.316406 -4.046875 29.703125 -4.046875 C 34.296875 -4.046875 38.28125 -5.257812 41.65625 -7.6875 C 45.03125 -10.125 47.125 -13.410156 47.9375 -17.546875 L 54.015625 -17.546875 C 52.929688 -11.972656 50.207031 -7.429688 45.84375 -3.921875 C 41.476562 -0.410156 36.097656 1.34375 29.703125 1.34375 Z M 10.265625 -30.921875 L 47.796875 -30.921875 C 47.710938 -33.265625 47.0625 -35.875 45.84375 -38.75 C 44.625 -41.632812 42.6875 -44.15625 40.03125 -46.3125 C 37.375 -48.476562 33.890625 -49.5625 29.578125 -49.5625 C 23.628906 -49.5625 19.078125 -47.710938 15.921875 -44.015625 C 12.773438 -40.328125 10.890625 -35.960938 10.265625 -30.921875 Z M 10.265625 -30.921875 "/></g></g></g><g fill="#ffffff" fill-opacity="1"><g transform="translate(208.913266, 289.921301)"><g><path d="M 44.828125 -54.828125 L 51.046875 -54.828125 L 51.046875 -53.0625 L 29.4375 0 L 20.53125 0 L -1.078125 -52.9375 L -1.078125 -54.828125 L 5 -54.828125 L 24.984375 -5 L 25.25 -5 Z M 44.828125 -54.828125 "/></g></g></g><g fill="#ffffff" fill-opacity="1"><g transform="translate(262.383583, 289.921301)"><g><path d="M 29.703125 1.34375 C 23.859375 1.34375 19.019531 -0.046875 15.1875 -2.828125 C 11.363281 -5.617188 8.503906 -9.195312 6.609375 -13.5625 C 4.722656 -17.9375 3.828125 -22.460938 3.921875 -27.140625 C 3.921875 -32.003906 4.910156 -36.550781 6.890625 -40.78125 C 8.867188 -45.007812 11.769531 -48.40625 15.59375 -50.96875 C 19.414062 -53.539062 24.078125 -54.828125 29.578125 -54.828125 C 36.410156 -54.828125 42.054688 -52.597656 46.515625 -48.140625 C 50.972656 -43.679688 53.472656 -37.71875 54.015625 -30.25 C 54.097656 -29.800781 54.140625 -29.257812 54.140625 -28.625 C 54.140625 -28 54.140625 -27.414062 54.140625 -26.875 L 9.859375 -26.875 C 9.859375 -19.9375 11.566406 -14.394531 14.984375 -10.25 C 18.410156 -6.113281 23.316406 -4.046875 29.703125 -4.046875 C 34.296875 -4.046875 38.28125 -5.257812 41.65625 -7.6875 C 45.03125 -10.125 47.125 -13.410156 47.9375 -17.546875 L 54.015625 -17.546875 C 52.929688 -11.972656 50.207031 -7.429688 45.84375 -3.921875 C 41.476562 -0.410156 36.097656 1.34375 29.703125 1.34375 Z M 10.265625 -30.921875 L 47.796875 -30.921875 C 47.710938 -33.265625 47.0625 -35.875 45.84375 -38.75 C 44.625 -41.632812 42.6875 -44.15625 40.03125 -46.3125 C 37.375 -48.476562 33.890625 -49.5625 29.578125 -49.5625 C 23.628906 -49.5625 19.078125 -47.710938 15.921875 -44.015625 C 12.773438 -40.328125 10.890625 -35.960938 10.265625 -30.921875 Z M 10.265625 -30.921875 "/></g></g></g><g fill="#ffffff" fill-opacity="1"><g transform="translate(322.470178, 289.921301)"><g><path d="M 5.265625 0 L 5.265625 -54.6875 L 10.390625 -54.6875 L 11.484375 -40.234375 L 11.75 -40.234375 C 11.925781 -40.867188 12.375 -41.953125 13.09375 -43.484375 C 13.8125 -45.015625 14.9375 -46.65625 16.46875 -48.40625 C 18 -50.164062 20.023438 -51.675781 22.546875 -52.9375 C 25.066406 -54.195312 28.21875 -54.828125 32 -54.828125 C 36.6875 -54.828125 40.421875 -53.992188 43.203125 -52.328125 C 45.992188 -50.660156 48.109375 -48.472656 49.546875 -45.765625 C 50.992188 -43.066406 51.941406 -40.097656 52.390625 -36.859375 C 52.835938 -33.617188 53.0625 -30.378906 53.0625 -27.140625 L 53.0625 0 L 46.984375 0 L 46.984375 -27.28125 C 46.984375 -33.9375 45.835938 -39.242188 43.546875 -43.203125 C 41.253906 -47.171875 37 -49.15625 30.78125 -49.15625 C 26.375 -49.15625 22.75 -48.097656 19.90625 -45.984375 C 17.070312 -43.867188 14.957031 -41.03125 13.5625 -37.46875 C 12.175781 -33.914062 11.484375 -30.066406 11.484375 -25.921875 L 11.484375 0 Z M 5.265625 0 "/></g></g></g><g fill="#ffffff" fill-opacity="1"><g transform="translate(381.341521, 289.921301)"><g><path d="M 26.203125 1.34375 C 20.429688 1.34375 16.015625 0.0390625 12.953125 -2.5625 C 9.898438 -5.175781 7.8125 -8.578125 6.6875 -12.765625 C 5.5625 -16.953125 5 -21.429688 5 -26.203125 L 5 -54.828125 L 11.078125 -54.828125 L 11.078125 -26.203125 C 11.078125 -22.054688 11.503906 -18.335938 12.359375 -15.046875 C 13.210938 -11.765625 14.832031 -9.15625 17.21875 -7.21875 C 19.601562 -5.289062 23.09375 -4.328125 27.6875 -4.328125 C 32 -4.328125 35.4375 -5.335938 38 -7.359375 C 40.570312 -9.378906 42.488281 -11.988281 43.75 -15.1875 C 45.007812 -18.382812 45.726562 -21.785156 45.90625 -25.390625 L 46.046875 -54.828125 L 52.25 -54.828125 L 52.25 0 L 47.125 0 L 46.046875 -13.09375 L 45.78125 -13.09375 C 45.238281 -11.207031 44.15625 -9.140625 42.53125 -6.890625 C 40.914062 -4.640625 38.78125 -2.703125 36.125 -1.078125 C 33.46875 0.535156 30.160156 1.34375 26.203125 1.34375 Z M 26.203125 1.34375 "/></g></g></g><g fill="#ffffff" fill-opacity="1"><g transform="translate(440.482931, 289.921301)"><g><path d="M 29.703125 1.34375 C 23.859375 1.34375 19.019531 -0.046875 15.1875 -2.828125 C 11.363281 -5.617188 8.503906 -9.195312 6.609375 -13.5625 C 4.722656 -17.9375 3.828125 -22.460938 3.921875 -27.140625 C 3.921875 -32.003906 4.910156 -36.550781 6.890625 -40.78125 C 8.867188 -45.007812 11.769531 -48.40625 15.59375 -50.96875 C 19.414062 -53.539062 24.078125 -54.828125 29.578125 -54.828125 C 36.410156 -54.828125 42.054688 -52.597656 46.515625 -48.140625 C 50.972656 -43.679688 53.472656 -37.71875 54.015625 -30.25 C 54.097656 -29.800781 54.140625 -29.257812 54.140625 -28.625 C 54.140625 -28 54.140625 -27.414062 54.140625 -26.875 L 9.859375 -26.875 C 9.859375 -19.9375 11.566406 -14.394531 14.984375 -10.25 C 18.410156 -6.113281 23.316406 -4.046875 29.703125 -4.046875 C 34.296875 -4.046875 38.28125 -5.257812 41.65625 -7.6875 C 45.03125 -10.125 47.125 -13.410156 47.9375 -17.546875 L 54.015625 -17.546875 C 52.929688 -11.972656 50.207031 -7.429688 45.84375 -3.921875 C 41.476562 -0.410156 36.097656 1.34375 29.703125 1.34375 Z M 10.265625 -30.921875 L 47.796875 -30.921875 C 47.710938 -33.265625 47.0625 -35.875 45.84375 -38.75 C 44.625 -41.632812 42.6875 -44.15625 40.03125 -46.3125 C 37.375 -48.476562 33.890625 -49.5625 29.578125 -49.5625 C 23.628906 -49.5625 19.078125 -47.710938 15.921875 -44.015625 C 12.773438 -40.328125 10.890625 -35.960938 10.265625 -30.921875 Z M 10.265625 -30.921875 "/></g></g></g><g fill="#ffffff" fill-opacity="1"><g transform="translate(85.303401, 370.562968)"><g><path d="M 26.203125 1.34375 C 21.609375 1.34375 17.867188 0.554688 14.984375 -1.015625 C 12.109375 -2.585938 9.90625 -4.453125 8.375 -6.609375 C 6.84375 -8.773438 5.785156 -10.847656 5.203125 -12.828125 C 4.617188 -14.804688 4.328125 -16.25 4.328125 -17.15625 L 10.390625 -17.15625 C 10.390625 -17.0625 10.457031 -16.316406 10.59375 -14.921875 C 10.726562 -13.523438 11.242188 -11.925781 12.140625 -10.125 C 13.046875 -8.320312 14.601562 -6.769531 16.8125 -5.46875 C 19.019531 -4.164062 22.191406 -3.515625 26.328125 -3.515625 C 29.210938 -3.515625 31.9375 -3.847656 34.5 -4.515625 C 37.0625 -5.191406 39.128906 -6.273438 40.703125 -7.765625 C 42.285156 -9.253906 43.078125 -11.210938 43.078125 -13.640625 C 42.984375 -16.515625 42.035156 -18.738281 40.234375 -20.3125 C 38.429688 -21.894531 36.085938 -23.085938 33.203125 -23.890625 C 30.328125 -24.703125 27.3125 -25.421875 24.15625 -26.046875 C 21.007812 -26.679688 18.019531 -27.539062 15.1875 -28.625 C 12.351562 -29.707031 10.054688 -31.28125 8.296875 -33.34375 C 6.546875 -35.414062 5.71875 -38.253906 5.8125 -41.859375 C 5.8125 -46.085938 7.789062 -49.550781 11.75 -52.25 C 15.707031 -54.957031 20.789062 -56.3125 27 -56.3125 C 29.34375 -56.3125 31.796875 -56.039062 34.359375 -55.5 C 36.929688 -54.957031 39.34375 -54.007812 41.59375 -52.65625 C 43.84375 -51.3125 45.640625 -49.445312 46.984375 -47.0625 C 48.335938 -44.675781 48.925781 -41.632812 48.75 -37.9375 L 42.8125 -37.9375 C 42.988281 -40.726562 42.535156 -43 41.453125 -44.75 C 40.367188 -46.507812 38.945312 -47.835938 37.1875 -48.734375 C 35.4375 -49.640625 33.613281 -50.25 31.71875 -50.5625 C 29.832031 -50.882812 28.125 -51.046875 26.59375 -51.046875 C 22.363281 -51.046875 18.785156 -50.253906 15.859375 -48.671875 C 12.941406 -47.097656 11.484375 -44.78125 11.484375 -41.71875 C 11.484375 -38.925781 12.378906 -36.832031 14.171875 -35.4375 C 15.972656 -34.050781 18.3125 -32.972656 21.1875 -32.203125 C 24.070312 -31.441406 27.085938 -30.722656 30.234375 -30.046875 C 33.390625 -29.367188 36.382812 -28.46875 39.21875 -27.34375 C 42.0625 -26.21875 44.40625 -24.570312 46.25 -22.40625 C 48.09375 -20.25 49.015625 -17.238281 49.015625 -13.375 C 49.015625 -9.945312 47.976562 -7.128906 45.90625 -4.921875 C 43.84375 -2.722656 41.078125 -1.128906 37.609375 -0.140625 C 34.140625 0.847656 30.335938 1.34375 26.203125 1.34375 Z M 26.203125 1.34375 "/></g></g></g><g fill="#ffffff" fill-opacity="1"><g transform="translate(138.773718, 370.562968)"><g><path d="M 28.890625 1.34375 C 23.671875 1.34375 19.21875 0.109375 15.53125 -2.359375 C 11.84375 -4.835938 9.050781 -8.191406 7.15625 -12.421875 C 5.269531 -16.648438 4.328125 -21.375 4.328125 -26.59375 C 4.328125 -32 5.289062 -36.816406 7.21875 -41.046875 C 9.15625 -45.273438 11.96875 -48.628906 15.65625 -51.109375 C 19.351562 -53.585938 23.8125 -54.828125 29.03125 -54.828125 C 32.71875 -54.828125 35.84375 -54.171875 38.40625 -52.859375 C 40.976562 -51.554688 43.03125 -50.023438 44.5625 -48.265625 C 46.09375 -46.515625 47.238281 -44.851562 48 -43.28125 C 48.769531 -41.707031 49.289062 -40.601562 49.5625 -39.96875 L 49.828125 -39.96875 L 50.90625 -54.828125 L 56.171875 -54.828125 L 56.171875 21.609375 L 49.96875 21.609375 L 49.96875 -13.375 L 49.6875 -13.375 C 49.414062 -12.738281 48.851562 -11.65625 48 -10.125 C 47.144531 -8.59375 45.90625 -6.925781 44.28125 -5.125 C 42.664062 -3.332031 40.597656 -1.804688 38.078125 -0.546875 C 35.554688 0.710938 32.492188 1.34375 28.890625 1.34375 Z M 29.578125 -4.453125 C 35.066406 -4.453125 39.769531 -6.382812 43.6875 -10.25 C 47.601562 -14.125 49.5625 -19.617188 49.5625 -26.734375 C 49.5625 -33.671875 47.738281 -39.09375 44.09375 -43 C 40.445312 -46.914062 35.921875 -48.875 30.515625 -48.875 C 26.015625 -48.875 22.28125 -47.816406 19.3125 -45.703125 C 16.34375 -43.585938 14.113281 -40.84375 12.625 -37.46875 C 11.132812 -34.09375 10.390625 -30.515625 10.390625 -26.734375 C 10.390625 -22.953125 11.039062 -19.347656 12.34375 -15.921875 C 13.65625 -12.503906 15.726562 -9.738281 18.5625 -7.625 C 21.394531 -5.507812 25.066406 -4.453125 29.578125 -4.453125 Z M 29.578125 -4.453125 "/></g></g></g><g fill="#ffffff" fill-opacity="1"><g transform="translate(201.695853, 370.562968)"><g><path d="M 26.203125 1.34375 C 20.429688 1.34375 16.015625 0.0390625 12.953125 -2.5625 C 9.898438 -5.175781 7.8125 -8.578125 6.6875 -12.765625 C 5.5625 -16.953125 5 -21.429688 5 -26.203125 L 5 -54.828125 L 11.078125 -54.828125 L 11.078125 -26.203125 C 11.078125 -22.054688 11.503906 -18.335938 12.359375 -15.046875 C 13.210938 -11.765625 14.832031 -9.15625 17.21875 -7.21875 C 19.601562 -5.289062 23.09375 -4.328125 27.6875 -4.328125 C 32 -4.328125 35.4375 -5.335938 38 -7.359375 C 40.570312 -9.378906 42.488281 -11.988281 43.75 -15.1875 C 45.007812 -18.382812 45.726562 -21.785156 45.90625 -25.390625 L 46.046875 -54.828125 L 52.25 -54.828125 L 52.25 0 L 47.125 0 L 46.046875 -13.09375 L 45.78125 -13.09375 C 45.238281 -11.207031 44.15625 -9.140625 42.53125 -6.890625 C 40.914062 -4.640625 38.78125 -2.703125 36.125 -1.078125 C 33.46875 0.535156 30.160156 1.34375 26.203125 1.34375 Z M 26.203125 1.34375 "/></g></g></g><g fill="#ffffff" fill-opacity="1"><g transform="translate(260.837263, 370.562968)"><g><path d="M 24.703125 1.21875 C 19.671875 1.21875 15.488281 -0.0390625 12.15625 -2.5625 C 8.820312 -5.082031 6.34375 -8.476562 4.71875 -12.75 C 3.101562 -17.03125 2.296875 -21.78125 2.296875 -27 C 2.296875 -32.40625 3.128906 -37.242188 4.796875 -41.515625 C 6.460938 -45.796875 8.957031 -49.171875 12.28125 -51.640625 C 15.613281 -54.117188 19.753906 -55.359375 24.703125 -55.359375 C 30.015625 -55.359375 34.242188 -54.078125 37.390625 -51.515625 C 40.546875 -48.953125 42.800781 -46.003906 44.15625 -42.671875 L 44.421875 -42.671875 L 44.421875 -54.828125 L 50.640625 -54.828125 L 50.640625 0 L 45.5 0 L 44.421875 -11.34375 L 44.15625 -11.34375 C 42.71875 -8.007812 40.421875 -5.082031 37.265625 -2.5625 C 34.117188 -0.0390625 29.929688 1.21875 24.703125 1.21875 Z M 27 -4.453125 C 32.757812 -4.453125 37.082031 -6.429688 39.96875 -10.390625 C 42.851562 -14.359375 44.296875 -19.851562 44.296875 -26.875 C 44.296875 -34.34375 42.785156 -39.96875 39.765625 -43.75 C 36.753906 -47.53125 32.5 -49.421875 27 -49.421875 C 20.613281 -49.421875 15.929688 -47.28125 12.953125 -43 C 9.984375 -38.726562 8.5 -33.394531 8.5 -27 C 8.5 -20.34375 10.03125 -14.921875 13.09375 -10.734375 C 16.15625 -6.546875 20.789062 -4.453125 27 -4.453125 Z M 27 -4.453125 "/></g></g></g><g fill="#ffffff" fill-opacity="1"><g transform="translate(316.603012, 370.562968)"><g><path d="M 7.015625 0 L 7.015625 -54.828125 L 12.28125 -54.828125 L 13.09375 -40.78125 C 14 -44.644531 16.113281 -47.972656 19.4375 -50.765625 C 22.769531 -53.554688 27.453125 -54.910156 33.484375 -54.828125 L 36.453125 -54.828125 L 36.453125 -47.9375 L 33.484375 -47.9375 C 27.367188 -47.9375 22.867188 -46.96875 19.984375 -45.03125 C 17.097656 -43.09375 15.226562 -40.503906 14.375 -37.265625 C 13.519531 -34.023438 13.09375 -30.425781 13.09375 -26.46875 L 13.09375 0 Z M 7.015625 0 "/></g></g></g><g fill="#ffffff" fill-opacity="1"><g transform="translate(354.950418, 370.562968)"><g><path d="M 29.703125 1.34375 C 23.859375 1.34375 19.019531 -0.046875 15.1875 -2.828125 C 11.363281 -5.617188 8.503906 -9.195312 6.609375 -13.5625 C 4.722656 -17.9375 3.828125 -22.460938 3.921875 -27.140625 C 3.921875 -32.003906 4.910156 -36.550781 6.890625 -40.78125 C 8.867188 -45.007812 11.769531 -48.40625 15.59375 -50.96875 C 19.414062 -53.539062 24.078125 -54.828125 29.578125 -54.828125 C 36.410156 -54.828125 42.054688 -52.597656 46.515625 -48.140625 C 50.972656 -43.679688 53.472656 -37.71875 54.015625 -30.25 C 54.097656 -29.800781 54.140625 -29.257812 54.140625 -28.625 C 54.140625 -28 54.140625 -27.414062 54.140625 -26.875 L 9.859375 -26.875 C 9.859375 -19.9375 11.566406 -14.394531 14.984375 -10.25 C 18.410156 -6.113281 23.316406 -4.046875 29.703125 -4.046875 C 34.296875 -4.046875 38.28125 -5.257812 41.65625 -7.6875 C 45.03125 -10.125 47.125 -13.410156 47.9375 -17.546875 L 54.015625 -17.546875 C 52.929688 -11.972656 50.207031 -7.429688 45.84375 -3.921875 C 41.476562 -0.410156 36.097656 1.34375 29.703125 1.34375 Z M 10.265625 -30.921875 L 47.796875 -30.921875 C 47.710938 -33.265625 47.0625 -35.875 45.84375 -38.75 C 44.625 -41.632812 42.6875 -44.15625 40.03125 -46.3125 C 37.375 -48.476562 33.890625 -49.5625 29.578125 -49.5625 C 23.628906 -49.5625 19.078125 -47.710938 15.921875 -44.015625 C 12.773438 -40.328125 10.890625 -35.960938 10.265625 -30.921875 Z M 10.265625 -30.921875 "/></g></g></g><g fill="#ffffff" fill-opacity="1"><g transform="translate(415.037012, 370.562968)"><g><path d="M 30.921875 1.34375 C 25.703125 1.34375 21.269531 0.109375 17.625 -2.359375 C 13.976562 -4.835938 11.207031 -8.210938 9.3125 -12.484375 C 7.425781 -16.765625 6.484375 -21.515625 6.484375 -26.734375 C 6.484375 -32.046875 7.445312 -36.816406 9.375 -41.046875 C 11.3125 -45.273438 14.101562 -48.628906 17.75 -51.109375 C 21.394531 -53.585938 25.832031 -54.828125 31.0625 -54.828125 C 34.84375 -54.828125 37.992188 -54.171875 40.515625 -52.859375 C 43.035156 -51.554688 45.082031 -50.023438 46.65625 -48.265625 C 48.226562 -46.515625 49.421875 -44.851562 50.234375 -43.28125 C 51.046875 -41.707031 51.539062 -40.601562 51.71875 -39.96875 L 51.984375 -39.96875 L 52.125 -76.015625 L 58.328125 -76.015625 L 58.328125 0 L 53.203125 0 L 52.125 -13.375 L 51.859375 -13.375 C 51.585938 -12.738281 51.019531 -11.65625 50.15625 -10.125 C 49.300781 -8.59375 48.0625 -6.925781 46.4375 -5.125 C 44.820312 -3.332031 42.734375 -1.804688 40.171875 -0.546875 C 37.609375 0.710938 34.523438 1.34375 30.921875 1.34375 Z M 31.734375 -4.453125 C 37.316406 -4.453125 42.039062 -6.382812 45.90625 -10.25 C 49.78125 -14.125 51.71875 -19.617188 51.71875 -26.734375 C 51.71875 -33.671875 49.894531 -39.09375 46.25 -43 C 42.601562 -46.914062 38.078125 -48.875 32.671875 -48.875 C 28.171875 -48.875 24.4375 -47.816406 21.46875 -45.703125 C 18.5 -43.585938 16.269531 -40.84375 14.78125 -37.46875 C 13.300781 -34.09375 12.5625 -30.515625 12.5625 -26.734375 C 12.5625 -22.953125 13.234375 -19.347656 14.578125 -15.921875 C 15.929688 -12.503906 18.003906 -9.738281 20.796875 -7.625 C 23.585938 -5.507812 27.234375 -4.453125 31.734375 -4.453125 Z M 31.734375 -4.453125 "/></g></g></g><g fill="#ffffff" fill-opacity="1"><g transform="translate(479.579461, 370.562968)"><g><path d="M 9.1875 0 C 7.382812 0 6.1875 -0.492188 5.59375 -1.484375 C 5.007812 -2.472656 4.71875 -3.644531 4.71875 -5 C 4.71875 -6.34375 5.03125 -7.53125 5.65625 -8.5625 C 6.289062 -9.601562 7.46875 -10.125 9.1875 -10.125 C 10.976562 -10.125 12.164062 -9.601562 12.75 -8.5625 C 13.34375 -7.53125 13.640625 -6.34375 13.640625 -5 C 13.640625 -3.644531 13.34375 -2.472656 12.75 -1.484375 C 12.164062 -0.492188 10.976562 0 9.1875 0 Z M 9.1875 0 "/></g></g></g></svg>