<svg xmlns="http://www.w3.org/2000/svg" xmlns:xlink="http://www.w3.org/1999/xlink" width="800" zoomAndPan="magnify" viewBox="0 0 600 599.999999" height="800" preserveAspectRatio="xMidYMid meet" version="1.0"><defs><g/></defs><path stroke-linecap="butt" transform="matrix(-4.5, -0.000000000000000551, 0.000000000000000551, -4.5, 563.913432, 537.718701)" fill="none" stroke-linejoin="miter" d="M -0.000140058 -0.0000108761 L 116.334066 -0.0000108761 " stroke="#ffffff" stroke-width="1" stroke-opacity="1" stroke-miterlimit="4"/><path stroke-linecap="butt" transform="matrix(-4.501499, -0.000000000000000551, 0.000000000000000551, -4.5, 563.90664, 39.686737)" fill="none" stroke-linejoin="miter" d="M 0.0000866911 -0.00016955 L 117.296962 -0.00016955 " stroke="#ffffff" stroke-width="1" stroke-opacity="1" stroke-miterlimit="4"/><path stroke-linecap="butt" transform="matrix(0.000000000000000276, 4.499788, -4.126075, 0.000000000000000253, 38.10982, 41.967441)" fill="none" stroke-linejoin="miter" d="M 0.000290989 0.000107956 L 110.673899 0.000107956 " stroke="#ffffff" stroke-width="1" stroke-opacity="1" stroke-miterlimit="4"/><path stroke-linecap="butt" transform="matrix(0.000000000000000276, 4.499788, -4.126075, 0.000000000000000253, 561.845376, 39.686151)" fill="none" stroke-linejoin="miter" d="M 0.00029975 0.000394159 L 110.673907 0.000394159 " stroke="#ffffff" stroke-width="1" stroke-opacity="1" stroke-miterlimit="4"/><g fill="#ffffff" fill-opacity="1"><g transform="translate(59.447405, 430.75905)"><g><path d="M 7.703125 0 L 7.703125 -66.65625 L 28.40625 -66.65625 C 34.007812 -66.65625 38.742188 -66.101562 42.609375 -65 C 46.484375 -63.894531 49.425781 -61.976562 51.4375 -59.25 C 53.445312 -56.53125 54.453125 -52.765625 54.453125 -47.953125 C 54.453125 -44.953125 53.898438 -42.148438 52.796875 -39.546875 C 51.691406 -36.941406 49.972656 -34.847656 47.640625 -33.265625 C 45.316406 -31.691406 42.300781 -30.90625 38.59375 -30.90625 C 42.226562 -30.90625 44.929688 -30.132812 46.703125 -28.59375 C 48.484375 -27.050781 49.664062 -25.113281 50.25 -22.78125 C 50.84375 -20.457031 51.160156 -18.03125 51.203125 -15.5 C 51.242188 -12.976562 51.320312 -10.671875 51.4375 -8.578125 C 51.5625 -6.492188 52.035156 -4.957031 52.859375 -3.96875 C 53.691406 -2.976562 55.210938 -2.878906 57.421875 -3.671875 L 57.421875 0.234375 C 57.023438 0.546875 56.253906 0.820312 55.109375 1.0625 C 53.960938 1.300781 52.71875 1.222656 51.375 0.828125 C 50.039062 0.429688 48.898438 -0.472656 47.953125 -1.890625 C 47.003906 -3.316406 46.53125 -5.488281 46.53125 -8.40625 C 46.53125 -12.976562 46.351562 -16.644531 46 -19.40625 C 45.644531 -22.175781 44.894531 -24.289062 43.75 -25.75 C 42.601562 -27.207031 40.828125 -28.191406 38.421875 -28.703125 C 36.015625 -29.222656 32.757812 -29.484375 28.65625 -29.484375 C 24.550781 -29.484375 19.378906 -29.441406 13.140625 -29.359375 L 13.140625 0 Z M 13.140625 -33.734375 L 30.546875 -33.734375 C 36.941406 -33.734375 41.71875 -34.703125 44.875 -36.640625 C 48.03125 -38.578125 49.609375 -42.269531 49.609375 -47.71875 C 49.609375 -51.894531 48.757812 -54.988281 47.0625 -57 C 45.363281 -59.019531 42.875 -60.34375 39.59375 -60.96875 C 36.320312 -61.601562 32.359375 -61.921875 27.703125 -61.921875 L 13.140625 -61.921875 Z M 13.140625 -33.734375 "/></g></g></g><g fill="#ffffff" fill-opacity="1"><g transform="translate(121.001823, 430.75905)"><g><path d="M 26.046875 1.1875 C 20.910156 1.1875 16.664062 -0.0351562 13.3125 -2.484375 C 9.957031 -4.929688 7.453125 -8.066406 5.796875 -11.890625 C 4.140625 -15.722656 3.351562 -19.691406 3.4375 -23.796875 C 3.4375 -28.054688 4.300781 -32.039062 6.03125 -35.75 C 7.769531 -39.457031 10.316406 -42.4375 13.671875 -44.6875 C 17.023438 -46.9375 21.109375 -48.0625 25.921875 -48.0625 C 31.921875 -48.0625 36.875 -46.109375 40.78125 -42.203125 C 44.6875 -38.296875 46.878906 -33.066406 47.359375 -26.515625 C 47.429688 -26.117188 47.46875 -25.644531 47.46875 -25.09375 C 47.46875 -24.539062 47.46875 -24.03125 47.46875 -23.5625 L 8.640625 -23.5625 C 8.640625 -17.476562 10.140625 -12.617188 13.140625 -8.984375 C 16.140625 -5.359375 20.441406 -3.546875 26.046875 -3.546875 C 30.066406 -3.546875 33.554688 -4.609375 36.515625 -6.734375 C 39.484375 -8.867188 41.320312 -11.753906 42.03125 -15.390625 L 47.359375 -15.390625 C 46.410156 -10.492188 44.019531 -6.503906 40.1875 -3.421875 C 36.363281 -0.347656 31.648438 1.1875 26.046875 1.1875 Z M 9 -27.109375 L 41.90625 -27.109375 C 41.832031 -29.160156 41.257812 -31.445312 40.1875 -33.96875 C 39.125 -36.5 37.425781 -38.710938 35.09375 -40.609375 C 32.769531 -42.503906 29.710938 -43.453125 25.921875 -43.453125 C 20.710938 -43.453125 16.726562 -41.832031 13.96875 -38.59375 C 11.207031 -35.351562 9.550781 -31.523438 9 -27.109375 Z M 9 -27.109375 "/></g></g></g><g fill="#ffffff" fill-opacity="1"><g transform="translate(173.678194, 430.75905)"><g><path d="M 39.3125 -48.0625 L 44.75 -48.0625 L 44.75 -46.53125 L 25.8125 0 L 18 0 L -0.953125 -46.40625 L -0.953125 -48.0625 L 4.375 -48.0625 L 21.90625 -4.375 L 22.140625 -4.375 Z M 39.3125 -48.0625 "/></g></g></g><g fill="#ffffff" fill-opacity="1"><g transform="translate(220.554227, 430.75905)"><g><path d="M 26.046875 1.1875 C 20.910156 1.1875 16.664062 -0.0351562 13.3125 -2.484375 C 9.957031 -4.929688 7.453125 -8.066406 5.796875 -11.890625 C 4.140625 -15.722656 3.351562 -19.691406 3.4375 -23.796875 C 3.4375 -28.054688 4.300781 -32.039062 6.03125 -35.75 C 7.769531 -39.457031 10.316406 -42.4375 13.671875 -44.6875 C 17.023438 -46.9375 21.109375 -48.0625 25.921875 -48.0625 C 31.921875 -48.0625 36.875 -46.109375 40.78125 -42.203125 C 44.6875 -38.296875 46.878906 -33.066406 47.359375 -26.515625 C 47.429688 -26.117188 47.46875 -25.644531 47.46875 -25.09375 C 47.46875 -24.539062 47.46875 -24.03125 47.46875 -23.5625 L 8.640625 -23.5625 C 8.640625 -17.476562 10.140625 -12.617188 13.140625 -8.984375 C 16.140625 -5.359375 20.441406 -3.546875 26.046875 -3.546875 C 30.066406 -3.546875 33.554688 -4.609375 36.515625 -6.734375 C 39.484375 -8.867188 41.320312 -11.753906 42.03125 -15.390625 L 47.359375 -15.390625 C 46.410156 -10.492188 44.019531 -6.503906 40.1875 -3.421875 C 36.363281 -0.347656 31.648438 1.1875 26.046875 1.1875 Z M 9 -27.109375 L 41.90625 -27.109375 C 41.832031 -29.160156 41.257812 -31.445312 40.1875 -33.96875 C 39.125 -36.5 37.425781 -38.710938 35.09375 -40.609375 C 32.769531 -42.503906 29.710938 -43.453125 25.921875 -43.453125 C 20.710938 -43.453125 16.726562 -41.832031 13.96875 -38.59375 C 11.207031 -35.351562 9.550781 -31.523438 9 -27.109375 Z M 9 -27.109375 "/></g></g></g><g fill="#ffffff" fill-opacity="1"><g transform="translate(273.230598, 430.75905)"><g><path d="M 4.625 0 L 4.625 -47.953125 L 9.109375 -47.953125 L 10.0625 -35.28125 L 10.296875 -35.28125 C 10.453125 -35.832031 10.847656 -36.78125 11.484375 -38.125 C 12.117188 -39.46875 13.101562 -40.90625 14.4375 -42.4375 C 15.78125 -43.976562 17.554688 -45.300781 19.765625 -46.40625 C 21.984375 -47.507812 24.75 -48.0625 28.0625 -48.0625 C 32.164062 -48.0625 35.441406 -47.332031 37.890625 -45.875 C 40.335938 -44.414062 42.191406 -42.5 43.453125 -40.125 C 44.710938 -37.757812 45.539062 -35.15625 45.9375 -32.3125 C 46.332031 -29.476562 46.53125 -26.640625 46.53125 -23.796875 L 46.53125 0 L 41.203125 0 L 41.203125 -23.921875 C 41.203125 -29.753906 40.191406 -34.40625 38.171875 -37.875 C 36.160156 -41.351562 32.4375 -43.09375 27 -43.09375 C 23.125 -43.09375 19.941406 -42.164062 17.453125 -40.3125 C 14.972656 -38.457031 13.117188 -35.96875 11.890625 -32.84375 C 10.671875 -29.726562 10.0625 -26.359375 10.0625 -22.734375 L 10.0625 0 Z M 4.625 0 "/></g></g></g><g fill="#ffffff" fill-opacity="1"><g transform="translate(324.841614, 430.75905)"><g><path d="M 22.96875 1.1875 C 17.914062 1.1875 14.046875 0.0390625 11.359375 -2.25 C 8.679688 -4.539062 6.847656 -7.519531 5.859375 -11.1875 C 4.867188 -14.851562 4.375 -18.78125 4.375 -22.96875 L 4.375 -48.0625 L 9.703125 -48.0625 L 9.703125 -22.96875 C 9.703125 -19.332031 10.078125 -16.070312 10.828125 -13.1875 C 11.578125 -10.3125 13 -8.023438 15.09375 -6.328125 C 17.1875 -4.628906 20.242188 -3.78125 24.265625 -3.78125 C 28.054688 -3.78125 31.078125 -4.664062 33.328125 -6.4375 C 35.578125 -8.21875 37.253906 -10.507812 38.359375 -13.3125 C 39.460938 -16.113281 40.09375 -19.09375 40.25 -22.25 L 40.375 -48.0625 L 45.8125 -48.0625 L 45.8125 0 L 41.3125 0 L 40.375 -11.484375 L 40.140625 -11.484375 C 39.660156 -9.828125 38.707031 -8.007812 37.28125 -6.03125 C 35.863281 -4.0625 33.988281 -2.363281 31.65625 -0.9375 C 29.332031 0.476562 26.4375 1.1875 22.96875 1.1875 Z M 22.96875 1.1875 "/></g></g></g><g fill="#ffffff" fill-opacity="1"><g transform="translate(376.689365, 430.75905)"><g><path d="M 26.046875 1.1875 C 20.910156 1.1875 16.664062 -0.0351562 13.3125 -2.484375 C 9.957031 -4.929688 7.453125 -8.066406 5.796875 -11.890625 C 4.140625 -15.722656 3.351562 -19.691406 3.4375 -23.796875 C 3.4375 -28.054688 4.300781 -32.039062 6.03125 -35.75 C 7.769531 -39.457031 10.316406 -42.4375 13.671875 -44.6875 C 17.023438 -46.9375 21.109375 -48.0625 25.921875 -48.0625 C 31.921875 -48.0625 36.875 -46.109375 40.78125 -42.203125 C 44.6875 -38.296875 46.878906 -33.066406 47.359375 -26.515625 C 47.429688 -26.117188 47.46875 -25.644531 47.46875 -25.09375 C 47.46875 -24.539062 47.46875 -24.03125 47.46875 -23.5625 L 8.640625 -23.5625 C 8.640625 -17.476562 10.140625 -12.617188 13.140625 -8.984375 C 16.140625 -5.359375 20.441406 -3.546875 26.046875 -3.546875 C 30.066406 -3.546875 33.554688 -4.609375 36.515625 -6.734375 C 39.484375 -8.867188 41.320312 -11.753906 42.03125 -15.390625 L 47.359375 -15.390625 C 46.410156 -10.492188 44.019531 -6.503906 40.1875 -3.421875 C 36.363281 -0.347656 31.648438 1.1875 26.046875 1.1875 Z M 9 -27.109375 L 41.90625 -27.109375 C 41.832031 -29.160156 41.257812 -31.445312 40.1875 -33.96875 C 39.125 -36.5 37.425781 -38.710938 35.09375 -40.609375 C 32.769531 -42.503906 29.710938 -43.453125 25.921875 -43.453125 C 20.710938 -43.453125 16.726562 -41.832031 13.96875 -38.59375 C 11.207031 -35.351562 9.550781 -31.523438 9 -27.109375 Z M 9 -27.109375 "/></g></g></g><g fill="#ffffff" fill-opacity="1"><g transform="translate(59.447405, 500.976852)"><g><path d="M 22.96875 1.1875 C 18.945312 1.1875 15.671875 0.5 13.140625 -0.875 C 10.617188 -2.257812 8.6875 -3.898438 7.34375 -5.796875 C 6 -7.691406 5.066406 -9.507812 4.546875 -11.25 C 4.035156 -12.988281 3.78125 -14.25 3.78125 -15.03125 L 9.109375 -15.03125 C 9.109375 -14.957031 9.164062 -14.304688 9.28125 -13.078125 C 9.40625 -11.859375 9.863281 -10.457031 10.65625 -8.875 C 11.445312 -7.300781 12.804688 -5.941406 14.734375 -4.796875 C 16.671875 -3.648438 19.457031 -3.078125 23.09375 -3.078125 C 25.613281 -3.078125 28 -3.375 30.25 -3.96875 C 32.5 -4.5625 34.3125 -5.507812 35.6875 -6.8125 C 37.070312 -8.113281 37.765625 -9.828125 37.765625 -11.953125 C 37.679688 -14.484375 36.847656 -16.4375 35.265625 -17.8125 C 33.691406 -19.195312 31.640625 -20.242188 29.109375 -20.953125 C 26.585938 -21.660156 23.945312 -22.289062 21.1875 -22.84375 C 18.425781 -23.394531 15.800781 -24.144531 13.3125 -25.09375 C 10.832031 -26.039062 8.820312 -27.421875 7.28125 -29.234375 C 5.738281 -31.054688 5.007812 -33.546875 5.09375 -36.703125 C 5.09375 -40.410156 6.828125 -43.445312 10.296875 -45.8125 C 13.773438 -48.1875 18.234375 -49.375 23.671875 -49.375 C 25.722656 -49.375 27.875 -49.132812 30.125 -48.65625 C 32.375 -48.1875 34.484375 -47.359375 36.453125 -46.171875 C 38.429688 -44.984375 40.007812 -43.34375 41.1875 -41.25 C 42.375 -39.164062 42.890625 -36.503906 42.734375 -33.265625 L 37.53125 -33.265625 C 37.6875 -35.710938 37.289062 -37.707031 36.34375 -39.25 C 35.394531 -40.789062 34.148438 -41.953125 32.609375 -42.734375 C 31.078125 -43.523438 29.476562 -44.054688 27.8125 -44.328125 C 26.15625 -44.609375 24.660156 -44.75 23.328125 -44.75 C 19.617188 -44.75 16.476562 -44.054688 13.90625 -42.671875 C 11.34375 -41.296875 10.0625 -39.265625 10.0625 -36.578125 C 10.0625 -34.128906 10.847656 -32.296875 12.421875 -31.078125 C 14.003906 -29.859375 16.054688 -28.910156 18.578125 -28.234375 C 21.109375 -27.566406 23.753906 -26.9375 26.515625 -26.34375 C 29.273438 -25.75 31.898438 -24.957031 34.390625 -23.96875 C 36.878906 -22.988281 38.929688 -21.550781 40.546875 -19.65625 C 42.160156 -17.757812 42.96875 -15.113281 42.96875 -11.71875 C 42.96875 -8.71875 42.0625 -6.25 40.25 -4.3125 C 38.4375 -2.382812 36.007812 -0.984375 32.96875 -0.109375 C 29.925781 0.753906 26.59375 1.1875 22.96875 1.1875 Z M 22.96875 1.1875 "/></g></g></g><g fill="#ffffff" fill-opacity="1"><g transform="translate(106.323439, 500.976852)"><g><path d="M 25.328125 1.1875 C 20.753906 1.1875 16.847656 0.101562 13.609375 -2.0625 C 10.378906 -4.238281 7.929688 -7.179688 6.265625 -10.890625 C 4.609375 -14.597656 3.78125 -18.742188 3.78125 -23.328125 C 3.78125 -28.054688 4.628906 -32.273438 6.328125 -35.984375 C 8.023438 -39.703125 10.492188 -42.644531 13.734375 -44.8125 C 16.972656 -46.976562 20.878906 -48.0625 25.453125 -48.0625 C 28.691406 -48.0625 31.4375 -47.488281 33.6875 -46.34375 C 35.9375 -45.207031 37.726562 -43.867188 39.0625 -42.328125 C 40.40625 -40.785156 41.410156 -39.320312 42.078125 -37.9375 C 42.753906 -36.5625 43.210938 -35.597656 43.453125 -35.046875 L 43.6875 -35.046875 L 44.640625 -48.0625 L 49.25 -48.0625 L 49.25 18.9375 L 43.796875 18.9375 L 43.796875 -11.71875 L 43.5625 -11.71875 C 43.332031 -11.164062 42.84375 -10.21875 42.09375 -8.875 C 41.34375 -7.53125 40.253906 -6.066406 38.828125 -4.484375 C 37.410156 -2.910156 35.597656 -1.570312 33.390625 -0.46875 C 31.179688 0.632812 28.492188 1.1875 25.328125 1.1875 Z M 25.921875 -3.90625 C 30.742188 -3.90625 34.867188 -5.601562 38.296875 -9 C 41.734375 -12.394531 43.453125 -17.207031 43.453125 -23.4375 C 43.453125 -29.519531 41.851562 -34.273438 38.65625 -37.703125 C 35.457031 -41.140625 31.488281 -42.859375 26.75 -42.859375 C 22.8125 -42.859375 19.535156 -41.929688 16.921875 -40.078125 C 14.316406 -38.222656 12.363281 -35.8125 11.0625 -32.84375 C 9.757812 -29.882812 9.109375 -26.75 9.109375 -23.4375 C 9.109375 -20.125 9.679688 -16.96875 10.828125 -13.96875 C 11.972656 -10.96875 13.789062 -8.539062 16.28125 -6.6875 C 18.769531 -4.832031 21.984375 -3.90625 25.921875 -3.90625 Z M 25.921875 -3.90625 "/></g></g></g><g fill="#ffffff" fill-opacity="1"><g transform="translate(161.485667, 500.976852)"><g><path d="M 22.96875 1.1875 C 17.914062 1.1875 14.046875 0.0390625 11.359375 -2.25 C 8.679688 -4.539062 6.847656 -7.519531 5.859375 -11.1875 C 4.867188 -14.851562 4.375 -18.78125 4.375 -22.96875 L 4.375 -48.0625 L 9.703125 -48.0625 L 9.703125 -22.96875 C 9.703125 -19.332031 10.078125 -16.070312 10.828125 -13.1875 C 11.578125 -10.3125 13 -8.023438 15.09375 -6.328125 C 17.1875 -4.628906 20.242188 -3.78125 24.265625 -3.78125 C 28.054688 -3.78125 31.078125 -4.664062 33.328125 -6.4375 C 35.578125 -8.21875 37.253906 -10.507812 38.359375 -13.3125 C 39.460938 -16.113281 40.09375 -19.09375 40.25 -22.25 L 40.375 -48.0625 L 45.8125 -48.0625 L 45.8125 0 L 41.3125 0 L 40.375 -11.484375 L 40.140625 -11.484375 C 39.660156 -9.828125 38.707031 -8.007812 37.28125 -6.03125 C 35.863281 -4.0625 33.988281 -2.363281 31.65625 -0.9375 C 29.332031 0.476562 26.4375 1.1875 22.96875 1.1875 Z M 22.96875 1.1875 "/></g></g></g><g fill="#ffffff" fill-opacity="1"><g transform="translate(213.333418, 500.976852)"><g><path d="M 21.671875 1.0625 C 17.242188 1.0625 13.570312 -0.0390625 10.65625 -2.25 C 7.738281 -4.457031 5.566406 -7.4375 4.140625 -11.1875 C 2.722656 -14.9375 2.015625 -19.097656 2.015625 -23.671875 C 2.015625 -28.410156 2.742188 -32.65625 4.203125 -36.40625 C 5.660156 -40.15625 7.847656 -43.113281 10.765625 -45.28125 C 13.691406 -47.457031 17.328125 -48.546875 21.671875 -48.546875 C 26.328125 -48.546875 30.035156 -47.421875 32.796875 -45.171875 C 35.554688 -42.921875 37.53125 -40.332031 38.71875 -37.40625 L 38.953125 -37.40625 L 38.953125 -48.0625 L 44.390625 -48.0625 L 44.390625 0 L 39.890625 0 L 38.953125 -9.9375 L 38.71875 -9.9375 C 37.445312 -7.019531 35.429688 -4.457031 32.671875 -2.25 C 29.910156 -0.0390625 26.242188 1.0625 21.671875 1.0625 Z M 23.671875 -3.90625 C 28.722656 -3.90625 32.507812 -5.640625 35.03125 -9.109375 C 37.5625 -12.585938 38.828125 -17.40625 38.828125 -23.5625 C 38.828125 -30.113281 37.503906 -35.046875 34.859375 -38.359375 C 32.222656 -41.671875 28.492188 -43.328125 23.671875 -43.328125 C 18.066406 -43.328125 13.960938 -41.453125 11.359375 -37.703125 C 8.753906 -33.953125 7.453125 -29.273438 7.453125 -23.671875 C 7.453125 -17.835938 8.796875 -13.082031 11.484375 -9.40625 C 14.171875 -5.738281 18.234375 -3.90625 23.671875 -3.90625 Z M 23.671875 -3.90625 "/></g></g></g><g fill="#ffffff" fill-opacity="1"><g transform="translate(262.22181, 500.976852)"><g><path d="M 6.15625 0 L 6.15625 -48.0625 L 10.78125 -48.0625 L 11.484375 -35.75 C 12.273438 -39.144531 14.128906 -42.066406 17.046875 -44.515625 C 19.960938 -46.960938 24.066406 -48.144531 29.359375 -48.0625 L 31.96875 -48.0625 L 31.96875 -42.03125 L 29.359375 -42.03125 C 23.992188 -42.03125 20.046875 -41.179688 17.515625 -39.484375 C 14.992188 -37.785156 13.359375 -35.515625 12.609375 -32.671875 C 11.859375 -29.828125 11.484375 -26.671875 11.484375 -23.203125 L 11.484375 0 Z M 6.15625 0 "/></g></g></g><g fill="#ffffff" fill-opacity="1"><g transform="translate(295.839996, 500.976852)"><g><path d="M 26.046875 1.1875 C 20.910156 1.1875 16.664062 -0.0351562 13.3125 -2.484375 C 9.957031 -4.929688 7.453125 -8.066406 5.796875 -11.890625 C 4.140625 -15.722656 3.351562 -19.691406 3.4375 -23.796875 C 3.4375 -28.054688 4.300781 -32.039062 6.03125 -35.75 C 7.769531 -39.457031 10.316406 -42.4375 13.671875 -44.6875 C 17.023438 -46.9375 21.109375 -48.0625 25.921875 -48.0625 C 31.921875 -48.0625 36.875 -46.109375 40.78125 -42.203125 C 44.6875 -38.296875 46.878906 -33.066406 47.359375 -26.515625 C 47.429688 -26.117188 47.46875 -25.644531 47.46875 -25.09375 C 47.46875 -24.539062 47.46875 -24.03125 47.46875 -23.5625 L 8.640625 -23.5625 C 8.640625 -17.476562 10.140625 -12.617188 13.140625 -8.984375 C 16.140625 -5.359375 20.441406 -3.546875 26.046875 -3.546875 C 30.066406 -3.546875 33.554688 -4.609375 36.515625 -6.734375 C 39.484375 -8.867188 41.320312 -11.753906 42.03125 -15.390625 L 47.359375 -15.390625 C 46.410156 -10.492188 44.019531 -6.503906 40.1875 -3.421875 C 36.363281 -0.347656 31.648438 1.1875 26.046875 1.1875 Z M 9 -27.109375 L 41.90625 -27.109375 C 41.832031 -29.160156 41.257812 -31.445312 40.1875 -33.96875 C 39.125 -36.5 37.425781 -38.710938 35.09375 -40.609375 C 32.769531 -42.503906 29.710938 -43.453125 25.921875 -43.453125 C 20.710938 -43.453125 16.726562 -41.832031 13.96875 -38.59375 C 11.207031 -35.351562 9.550781 -31.523438 9 -27.109375 Z M 9 -27.109375 "/></g></g></g><g fill="#ffffff" fill-opacity="1"><g transform="translate(348.516366, 500.976852)"><g><path d="M 27.109375 1.1875 C 22.535156 1.1875 18.648438 0.101562 15.453125 -2.0625 C 12.253906 -4.238281 9.828125 -7.203125 8.171875 -10.953125 C 6.515625 -14.703125 5.6875 -18.863281 5.6875 -23.4375 C 5.6875 -28.09375 6.535156 -32.273438 8.234375 -35.984375 C 9.929688 -39.703125 12.375 -42.644531 15.5625 -44.8125 C 18.757812 -46.976562 22.648438 -48.0625 27.234375 -48.0625 C 30.546875 -48.0625 33.304688 -47.488281 35.515625 -46.34375 C 37.722656 -45.207031 39.515625 -43.867188 40.890625 -42.328125 C 42.273438 -40.785156 43.320312 -39.320312 44.03125 -37.9375 C 44.75 -36.5625 45.1875 -35.597656 45.34375 -35.046875 L 45.578125 -35.046875 L 45.703125 -66.65625 L 51.140625 -66.65625 L 51.140625 0 L 46.640625 0 L 45.703125 -11.71875 L 45.46875 -11.71875 C 45.226562 -11.164062 44.734375 -10.21875 43.984375 -8.875 C 43.234375 -7.53125 42.144531 -6.066406 40.71875 -4.484375 C 39.300781 -2.910156 37.46875 -1.570312 35.21875 -0.46875 C 32.96875 0.632812 30.265625 1.1875 27.109375 1.1875 Z M 27.828125 -3.90625 C 32.710938 -3.90625 36.851562 -5.601562 40.25 -9 C 43.644531 -12.394531 45.34375 -17.207031 45.34375 -23.4375 C 45.34375 -29.519531 43.742188 -34.273438 40.546875 -37.703125 C 37.347656 -41.140625 33.382812 -42.859375 28.65625 -42.859375 C 24.707031 -42.859375 21.429688 -41.929688 18.828125 -40.078125 C 16.222656 -38.222656 14.269531 -35.8125 12.96875 -32.84375 C 11.664062 -29.882812 11.015625 -26.75 11.015625 -23.4375 C 11.015625 -20.125 11.601562 -16.96875 12.78125 -13.96875 C 13.96875 -10.96875 15.785156 -8.539062 18.234375 -6.6875 C 20.679688 -4.832031 23.878906 -3.90625 27.828125 -3.90625 Z M 27.828125 -3.90625 "/></g></g></g><g fill="#ffffff" fill-opacity="1"><g transform="translate(405.099067, 500.976852)"><g><path d="M 8.046875 0 C 6.472656 0 5.425781 -0.429688 4.90625 -1.296875 C 4.394531 -2.171875 4.140625 -3.195312 4.140625 -4.375 C 4.140625 -5.5625 4.414062 -6.609375 4.96875 -7.515625 C 5.519531 -8.421875 6.546875 -8.875 8.046875 -8.875 C 9.628906 -8.875 10.675781 -8.421875 11.1875 -7.515625 C 11.695312 -6.609375 11.953125 -5.5625 11.953125 -4.375 C 11.953125 -3.195312 11.695312 -2.171875 11.1875 -1.296875 C 10.675781 -0.429688 9.628906 0 8.046875 0 Z M 8.046875 0 "/></g></g></g></svg>